<?xml version="1.0" standalone="no"?>
<!DOCTYPE svg PUBLIC "-//W3C//DTD SVG 20010904//EN"
 "http://www.w3.org/TR/2001/REC-SVG-20010904/DTD/svg10.dtd">
<svg version="1.0" xmlns="http://www.w3.org/2000/svg"
 width="256.000000pt" height="256.000000pt" viewBox="0 0 256.000000 256.000000"
 preserveAspectRatio="xMidYMid meet">
<metadata>
Created by potrace 1.10, written by Peter Selinger 2001-2011
</metadata>
<g transform="translate(0.000000,256.000000) scale(0.100000,-0.100000)"
fill="#13b4df" stroke="none">
<path d="M1102 2103 l-162 -205 144 -387 c79 -212 146 -393 150 -401 5 -12 -2
-14 -42 -12 l-47 4 -133 268 c-206 416 -298 516 -496 541 -130 17 -221 -22
-332 -144 -81 -88 -115 -177 -115 -301 0 -77 8 -156 17 -156 2 0 31 20 66 44
118 82 164 100 248 99 91 0 135 -17 298 -110 71 -41 152 -98 206 -146 50 -43
98 -83 109 -88 60 -33 -102 132 -188 191 -75 51 -242 140 -298 160 -126 44
-228 27 -357 -60 -25 -16 -50 -30 -56 -30 -27 0 -24 142 5 238 27 89 133 207
228 253 70 34 189 31 270 -6 125 -57 199 -156 363 -484 71 -144 139 -270 150
-281 38 -38 120 -20 120 26 0 14 -61 189 -135 390 -74 201 -135 372 -135 381
0 17 273 363 297 377 11 6 20 4 27 -5 6 -8 73 -92 149 -186 75 -94 137 -178
137 -187 0 -9 -36 -114 -81 -233 -213 -572 -203 -539 -179 -563 28 -28 81 -26
111 4 13 13 81 138 150 278 70 139 147 280 172 314 106 141 196 194 331 197
72 1 88 -2 139 -28 81 -40 178 -145 207 -222 38 -100 50 -263 19 -263 -5 0
-39 19 -76 41 -91 56 -136 71 -215 71 -85 1 -156 -25 -303 -110 -127 -74 -146
-87 -238 -172 -71 -65 -106 -111 -70 -91 11 5 59 45 109 88 54 48 135 105 206
146 163 93 207 110 298 110 84 1 130 -17 249 -100 35 -24 65 -42 67 -40 11 10
20 149 14 202 -13 105 -45 176 -113 251 -112 123 -203 162 -333 145 -198 -25
-290 -125 -496 -542 l-133 -269 -48 0 c-42 0 -47 2 -38 18 5 9 72 189 150 398
l141 382 -162 205 c-115 144 -169 205 -183 205 -14 0 -68 -61 -183 -205z"/>
<path d="M970 1009 c0 -79 2 -90 16 -85 9 3 43 6 77 6 47 1 58 3 45 11 -10 5
-34 12 -54 15 -20 2 -40 7 -45 10 -12 7 -11 85 1 104 6 9 5 17 -3 22 -32 20
-37 8 -37 -83z"/>
<path d="M1561 1091 c-9 -6 -10 -11 -2 -15 6 -4 11 -29 11 -56 0 -54 -15 -70
-67 -70 -15 0 -35 -5 -43 -10 -11 -7 3 -10 47 -10 34 0 68 -3 77 -6 14 -5 16
6 16 85 0 92 -5 103 -39 82z"/>
<path d="M656 970 c-20 -51 -21 -161 -1 -199 17 -33 116 -125 159 -148 38 -20
147 -13 195 11 90 47 161 147 176 251 8 50 25 61 25 17 0 -43 -28 -131 -61
-188 -28 -50 -108 -134 -161 -168 -16 -10 -28 -22 -28 -26 0 -10 312 -270 325
-271 12 0 325 261 325 271 0 4 -10 14 -23 23 -54 35 -138 122 -166 170 -32 58
-61 146 -61 189 0 44 17 33 25 -17 15 -104 86 -204 176 -251 48 -24 157 -31
195 -11 46 24 150 123 164 156 17 43 10 170 -13 204 l-17 27 -35 -38 c-94
-105 -284 -141 -377 -72 -37 27 -45 21 -18 -13 30 -38 95 -54 184 -46 86 8
146 32 200 79 46 41 56 32 56 -56 0 -51 -4 -67 -29 -101 -28 -39 -86 -90 -128
-112 -58 -30 -165 -5 -232 55 -46 42 -101 134 -101 170 0 26 -27 64 -45 64
-25 0 -29 -50 -11 -124 22 -92 61 -158 135 -230 34 -32 61 -64 61 -71 0 -16
-247 -225 -265 -225 -11 0 -65 39 -85 60 -3 3 -39 33 -80 67 -124 100 -121 91
-50 159 79 75 116 132 140 215 24 80 25 122 4 140 -14 11 -19 10 -35 -10 -11
-13 -19 -33 -19 -46 0 -30 -45 -113 -83 -153 -78 -81 -199 -106 -273 -56 -53
36 -103 84 -120 116 -15 29 -19 135 -6 156 6 9 21 3 57 -24 69 -53 131 -74
220 -74 84 0 134 16 158 51 23 31 14 35 -21 9 -93 -69 -283 -33 -378 72 -18
21 -36 38 -38 38 -2 0 -11 -18 -20 -40z"/>
</g>
</svg>
